<svg xmlns="http://www.w3.org/2000/svg" viewBox="0 0 180 180"><defs><style>.cls-1{fill:#00c19f;}.cls-2{fill:#fff;}</style></defs><title>Recurso 6paso</title><g id="Capa_2" data-name="Capa 2"><g id="Capa_1-2" data-name="Capa 1"><circle class="cls-1" cx="90" cy="90" r="90"/><path class="cls-2" d="M68.18,109.29c0,3.24-7.41,5.87-16.55,5.87s-16.55-2.63-16.55-5.87v6.13c0,3.24,7.41,5.87,16.55,5.87s16.55-2.63,16.55-5.87Z"/><path class="cls-2" d="M68.18,94.86c0,3.24-7.41,5.86-16.55,5.86S35.08,98.1,35.08,94.86,42.49,89,51.63,89s16.55,2.63,16.55,5.87"/><path class="cls-2" d="M68.18,99c0,3.24-7.41,5.86-16.55,5.86S35.08,102.25,35.08,99v6.13c0,3.24,7.41,5.87,16.55,5.87s16.55-2.63,16.55-5.87Z"/><path class="cls-2" d="M68.18,120.14c0,3.24-7.41,5.86-16.55,5.86s-16.55-2.62-16.55-5.86v6.13c0,3.24,7.41,5.87,16.55,5.87s16.55-2.63,16.55-5.87Z"/><path class="cls-2" d="M106.56,109.29c0,3.24-7.41,5.87-16.55,5.87s-16.56-2.63-16.56-5.87v6.13c0,3.24,7.41,5.87,16.56,5.87s16.55-2.63,16.55-5.87Z"/><path class="cls-2" d="M106.56,99c0,3.24-7.41,5.86-16.55,5.86S73.45,102.25,73.45,99v6.13c0,3.24,7.41,5.87,16.56,5.87s16.55-2.63,16.55-5.87Z"/><path class="cls-2" d="M106.56,88.73c0,3.23-7.41,5.86-16.55,5.86S73.45,92,73.45,88.73v6.13c0,3.24,7.41,5.86,16.56,5.86s16.55-2.62,16.55-5.86Z"/><path class="cls-2" d="M106.56,74.29c0,3.24-7.41,5.87-16.55,5.87s-16.56-2.63-16.56-5.87S80.86,68.43,90,68.43s16.55,2.62,16.55,5.86"/><path class="cls-2" d="M106.56,78.44c0,3.24-7.41,5.87-16.55,5.87s-16.56-2.63-16.56-5.87v6.14c0,3.23,7.41,5.86,16.56,5.86s16.55-2.63,16.55-5.86Z"/><path class="cls-2" d="M106.56,120.14c0,3.24-7.41,5.86-16.55,5.86s-16.56-2.62-16.56-5.86v6.13c0,3.24,7.41,5.87,16.56,5.87s16.55-2.63,16.55-5.87Z"/><path class="cls-2" d="M144.92,109.29c0,3.24-7.41,5.87-16.55,5.87s-16.55-2.63-16.55-5.87v6.13c0,3.24,7.41,5.87,16.55,5.87s16.55-2.63,16.55-5.87Z"/><path class="cls-2" d="M144.92,99c0,3.24-7.41,5.86-16.55,5.86s-16.55-2.62-16.55-5.86v6.13c0,3.24,7.41,5.87,16.55,5.87s16.55-2.63,16.55-5.87Z"/><path class="cls-2" d="M144.92,88.73c0,3.23-7.41,5.86-16.55,5.86S111.82,92,111.82,88.73v6.13c0,3.24,7.41,5.86,16.55,5.86s16.55-2.62,16.55-5.86Z"/><path class="cls-2" d="M144.92,78.44c0,3.24-7.41,5.87-16.55,5.87s-16.55-2.63-16.55-5.87v6.14c0,3.23,7.41,5.86,16.55,5.86s16.55-2.63,16.55-5.86Z"/><path class="cls-2" d="M144.92,68.16c0,3.24-7.41,5.87-16.55,5.87s-16.55-2.63-16.55-5.87v6.13c0,3.24,7.41,5.87,16.55,5.87s16.55-2.63,16.55-5.87Z"/><path class="cls-2" d="M144.92,53.73c0,3.24-7.41,5.86-16.55,5.86S111.82,57,111.82,53.73s7.41-5.87,16.55-5.87,16.55,2.63,16.55,5.87"/><path class="cls-2" d="M144.92,57.88c0,3.24-7.41,5.86-16.55,5.86s-16.55-2.62-16.55-5.86V64c0,3.24,7.41,5.87,16.55,5.87s16.55-2.63,16.55-5.87Z"/><path class="cls-2" d="M144.92,120.14c0,3.24-7.41,5.86-16.55,5.86s-16.55-2.62-16.55-5.86v6.13c0,3.24,7.41,5.87,16.55,5.87s16.55-2.63,16.55-5.87Z"/></g></g></svg>