<svg xmlns="http://www.w3.org/2000/svg" viewBox="0 0 180 180"><defs><style>.cls-1{fill:#445fb0;}.cls-2{fill:#fff;}</style></defs><title>Recurso 3paso</title><g id="Capa_2" data-name="Capa 2"><g id="Capa_1-2" data-name="Capa 1"><circle class="cls-1" cx="90" cy="90" r="90"/><path class="cls-2" d="M100.34,88.68c6.62-5.17,11.07-14.79,11.07-23.93,0-13.23-9.38-20.45-21-20.45s-21,7.22-21,20.45c0,9.14,4.44,18.88,11.06,23.93-16.12,3.6-27.9,15.51-27.9,26.57,0,13.23,17,20.45,37.88,20.45a84.85,84.85,0,0,0,11.19-.72,17.74,17.74,0,0,1-6.38-13.71,18,18,0,0,1,18-18,18.37,18.37,0,0,1,14.31,7C124.64,100.82,114.05,91.8,100.34,88.68Z"/><path class="cls-2" d="M113.21,109.84a1.85,1.85,0,0,0-1.8,1.81v7.81h-7.82a1.81,1.81,0,0,0,0,3.61h7.82v7.82a1.8,1.8,0,0,0,3.6,0v-7.82h7.82a1.81,1.81,0,1,0,0-3.61H115v-7.81A1.85,1.85,0,0,0,113.21,109.84Z"/></g></g></svg>