<svg xmlns="http://www.w3.org/2000/svg" viewBox="0 0 180 180"><defs><style>.cls-1{fill:#514689;}.cls-2{fill:#fff;}</style></defs><title>Recurso 1paso</title><g id="Capa_2" data-name="Capa 2"><g id="Capa_1-2" data-name="Capa 1"><circle class="cls-1" cx="90" cy="90" r="90"/><circle class="cls-2" cx="106.6" cy="153.92" r="8.59"/><circle class="cls-2" cx="118.81" cy="131.98" r="11.26"/><path class="cls-2" d="M121.1,58.9a33.09,33.09,0,0,0-7.63,1.15A35.27,35.27,0,0,0,90,50.89a34.72,34.72,0,0,0-23.47,9.16A25.28,25.28,0,0,0,58.9,58.9a27.29,27.29,0,0,0,0,54.57,33.09,33.09,0,0,0,7.63-1.15A35.27,35.27,0,0,0,90,121.48a34.72,34.72,0,0,0,23.47-9.16,25.28,25.28,0,0,0,7.63,1.15,27.29,27.29,0,0,0,0-54.57Z"/><path class="cls-1" d="M83.13,87.28a1.62,1.62,0,0,1-1,.41H79.61v9.1A1.33,1.33,0,0,1,78.37,98H72.79V91.21H68V98H62.44a1.33,1.33,0,0,1-1.24-1.24v-9.1H58.72a1.62,1.62,0,0,1-.83-.41,1.28,1.28,0,0,1-.2-.83,1.06,1.06,0,0,1,.41-.83l11.58-9.1a1,1,0,0,1,1.45,0l5.59,4.34V78.17a.55.55,0,0,1,.62-.62h1.24a.55.55,0,0,1,.62.62v4.55l3.52,2.69C83.54,86,83.54,86.86,83.13,87.28Z"/><path class="cls-1" d="M129.08,84.79a1.41,1.41,0,0,1-1.45,1.45h-.41a25.13,25.13,0,0,1,.41,4.14v7a1.41,1.41,0,0,1-1.45,1.45H123.7a1.41,1.41,0,0,1-1.45-1.45V95.14H107.77v2.27a1.41,1.41,0,0,1-1.44,1.45h-2.49a1.41,1.41,0,0,1-1.44-1.45v-7a27.65,27.65,0,0,1,.41-4.14h-.41A1.41,1.41,0,0,1,101,84.79V84a1.41,1.41,0,0,1,1.45-1.45h1.86l1.24-3.73a4.47,4.47,0,0,1,4.34-3.1h10.55a4.48,4.48,0,0,1,4.35,3.1L126,82.52h1.86A1.41,1.41,0,0,1,129.29,84v.82Z"/><circle class="cls-2" cx="107.15" cy="89.3" r="2.03"/><circle class="cls-2" cx="123.09" cy="89.3" r="2.03"/></g></g></svg>