<svg xmlns="http://www.w3.org/2000/svg" viewBox="0 0 180 180"><defs><style>.cls-1{fill:#0091da;}.cls-2{fill:#fff;}</style></defs><title>Recurso 4paso</title><g id="Capa_2" data-name="Capa 2"><g id="Capa_1-2" data-name="Capa 1"><circle class="cls-1" cx="90" cy="90" r="90"/><path class="cls-2" d="M144.8,85.41l-8.08-8.08a2.69,2.69,0,0,0-3.8,0l-8.87,8.86V49.63a2.69,2.69,0,0,0-2.69-2.7H62.15a2.69,2.69,0,0,0-2.69,2.7v80.74a2.69,2.69,0,0,0,2.69,2.7h59.21a2.69,2.69,0,0,0,2.69-2.7V110L144.8,89.21A2.69,2.69,0,0,0,144.8,85.41Zm-71.89-25H110.6v8.08H72.91Zm0,16.15H110.6v8.08H72.91Zm0,16.15h29.61v8.08H72.91Zm33.88,26.92h-4.27v-4.27L134.82,83l4.27,4.27Z"/></g></g></svg>