<svg xmlns="http://www.w3.org/2000/svg" viewBox="0 0 180 180"><defs><style>.cls-1{fill:#00c4d9;}.cls-2{fill:#fff;}</style></defs><title>Recurso 5paso</title><g id="Capa_2" data-name="Capa 2"><g id="Capa_1-2" data-name="Capa 1"><circle class="cls-1" cx="90" cy="90" r="90"/><path class="cls-2" d="M137.13,96.52a16.31,16.31,0,0,1,0-12.39l.55-1.31a16.36,16.36,0,0,0-8.81-21.31l-1.2-.54a15.89,15.89,0,0,1-8.8-8.81l-.44-1.08A16.57,16.57,0,0,0,97,42.27l-1.08.43a16.61,16.61,0,0,1-12.51,0l-1-.43a16.42,16.42,0,0,0-21.2,8.91l-.43.87A15.91,15.91,0,0,1,52,60.86l-1,.44a16.4,16.4,0,0,0-8.7,21.31l.44,1a16.31,16.31,0,0,1,0,12.39l-.44,1.2a16.11,16.11,0,0,0,8.81,21.2l1.09.43a16,16,0,0,1,8.8,8.81l.55,1.2a16.25,16.25,0,0,0,21.2,8.91l1.2-.54a16.59,16.59,0,0,1,12.5,0l1,.43a16.36,16.36,0,0,0,21.31-8.8l.43-.87a15.91,15.91,0,0,1,8.81-8.81l.87-.33a16.23,16.23,0,0,0,8.81-21.31ZM85.38,111.2h0L64.18,93.37l6.52-7.72L84.18,97.07,108,68.8l7.72,6.52L85.38,111.2Z"/></g></g></svg>